# xmcd
#
# Track frame offsets:
#	150
#	16561
#	29755
#	45958
#	67084
#	83238
#	101876
#	121043
#	136668
#	152775
#	170420
#	190528
#	207037
#	224304
#	240801
#	256885
#
# Disc length: 3620 seconds
#
# Revision: 0
# Processed by: cddbd v1.5.1PL2 Copyright (c) Steve Scherf et al.
# Submitted via: SynApp - FreeCDDB Version: 2.1
#
DISCID=c50e2210
DTITLE=Shania Twain - Come On Over
DYEAR=1998
DGENRE=Pop
TTITLE0=You're still the on
TTITLE1=When
TTITLE2=From this moment on
TTITLE3=Black eyes, Blue tears
TTITLE4=I won't leave you lonely
TTITLE5=I'm holdin' on to love
TTITLE6=Come on over
TTITLE7=You've got the way
TTITLE8=Whatever you do!
TTITLE9=Man!
TTITLE10=Love gets me every time
TTITLE11=Dont be stupid
TTITLE12=That don't impress me mutch
TTITLE13=Honey
TTITLE14=If you wanna touch her, ask!
TTITLE15=Rock this country
EXTD=
EXTT0=
EXTT1=
EXTT2=
EXTT3=
EXTT4=
EXTT5=
EXTT6=
EXTT7=
EXTT8=
EXTT9=
EXTT10=
EXTT11=
EXTT12=
EXTT13=
EXTT14=
EXTT15=
PLAYORDER=
